<?xml version="1.0" encoding="utf-8"?>
<!-- Svg Vector Icons : http://www.onlinewebfonts.com/icon -->
<!DOCTYPE svg PUBLIC "-//W3C//DTD SVG 1.1//EN" "http://www.w3.org/Graphics/SVG/1.1/DTD/svg11.dtd">
<svg version="1.1" xmlns="http://www.w3.org/2000/svg" xmlns:xlink="http://www.w3.org/1999/xlink" x="0px" y="0px" viewBox="0 0 1000 1000" enable-background="new 0 0 1000 1000" xml:space="preserve">
<metadata> Svg Vector Icons : http://www.onlinewebfonts.com/icon </metadata>
<g><g><g><path d="M702.2,120l-32.9,57l114,65.8l32.9-57c9.1-15.8,3.7-35.9-12.1-45l-57-32.9C731.5,98.8,711.3,104.2,702.2,120z"/><path d="M500,158.2c20.8,0,41.2,2,61.3,4.9v-53.3l42.1-0.3V40.6c0-16.9-13.7-30.6-30.6-30.6H427.6C410.7,10,397,23.7,397,40.6v68.9l41.8,0.3v53.3C458.8,160.3,479.2,158.2,500,158.2z"/><path d="M500,193.8c-219.9,0-398.1,178.2-398.1,398.1C101.9,811.8,280.1,990,500,990c219.9,0,398.1-178.2,398.1-398.1C898.1,372,719.9,193.8,500,193.8z M686,779l-232-160.6V391.7H521v191.7L724.2,724L686,779z"/></g></g><g></g><g></g><g></g><g></g><g></g><g></g><g></g><g></g><g></g><g></g><g></g><g></g><g></g><g></g><g></g></g>
</svg>